<?xml version="1.0" encoding="UTF-8"?>
<!DOCTYPE svg PUBLIC "-//W3C//DTD SVG 1.1//EN" "http://www.w3.org/Graphics/SVG/1.1/DTD/svg11.dtd">
<!-- Creator: CorelDRAW X5 -->
<svg xmlns="http://www.w3.org/2000/svg" xml:space="preserve" width="102.281mm" height="67.5489mm" style="shape-rendering:geometricPrecision; text-rendering:geometricPrecision; image-rendering:optimizeQuality; fill-rule:evenodd; clip-rule:evenodd"
viewBox="0 0 11144 7360"
 xmlns:xlink="http://www.w3.org/1999/xlink">
 <defs>
  <style type="text/css">
   <![CDATA[
    .fil1 {fill:#ED3237}
    .fil0 {fill:#FEFEFE;fill-rule:nonzero}
   ]]>
  </style>
 </defs>
 <g id="Capa_x0020_1">
  <metadata id="CorelCorpID_0Corel-Layer"/>
  <path class="fil0" d="M10806 4565c-99,0 -180,-33 -243,-98 -63,-65 -95,-144 -95,-235 0,-95 32,-174 95,-238 63,-64 144,-96 243,-96 99,0 180,30 243,91 63,61 95,137 95,229 0,98 -31,180 -93,247 -62,67 -144,100 -245,100zm-262 2764l-4 -2373 524 4 4 2368 -524 0zm-1104 0l0 -288c-52,82 -123,150 -214,203 -131,77 -297,116 -497,116 -169,0 -317,-30 -444,-91 -127,-61 -225,-145 -294,-253 -69,-108 -104,-230 -104,-367 0,-133 30,-253 91,-360 61,-107 160,-191 298,-253 138,-62 321,-93 550,-93l583 0 0 -36c0,-163 -47,-290 -140,-380 -93,-90 -234,-136 -423,-136 -127,0 -252,21 -374,62 -123,41 -226,99 -311,173l-207 -404c121,-98 266,-171 433,-220 168,-49 342,-73 522,-73 327,0 580,82 759,247 179,164 268,418 268,762l0 1391 -499 0zm-30 -742l0 -275 -545 0c-180,0 -302,30 -364,91 -62,61 -93,136 -93,224 0,101 38,181 114,240 76,59 182,89 317,89 130,0 246,-31 349,-93 103,-62 177,-154 222,-275zm-2707 773c-237,0 -447,-53 -632,-158 -185,-105 -329,-250 -433,-433 -104,-184 -156,-392 -156,-626 0,-237 52,-447 156,-629 104,-182 249,-325 433,-429 185,-104 395,-155 632,-155 220,0 414,47 581,140 168,93 295,230 383,411l-406 249c-68,-113 -150,-195 -247,-249 -97,-53 -202,-80 -315,-80 -130,0 -247,30 -351,89 -104,59 -186,144 -245,255 -59,111 -89,244 -89,398 0,154 30,287 89,398 59,111 141,196 245,255 104,59 221,89 351,89 113,0 218,-27 315,-80 97,-53 180,-136 247,-249l406 249c-87,178 -215,315 -383,411 -168,96 -361,144 -581,144zm-2673 -475c130,0 245,-30 347,-89 101,-59 181,-145 239,-258 58,-113 88,-244 91,-395 -3,-154 -33,-287 -91,-398 -58,-111 -137,-196 -239,-255 -101,-59 -217,-89 -347,-89 -127,0 -240,30 -340,89 -100,59 -180,144 -239,255 -59,111 -89,244 -89,398 0,151 30,283 89,395 59,113 139,199 239,260 100,61 214,90 340,87zm0 475c-231,-3 -437,-56 -617,-160 -180,-104 -323,-247 -427,-429 -104,-182 -156,-392 -156,-629 0,-237 53,-447 159,-629 106,-182 248,-325 427,-429 179,-104 384,-155 615,-155 234,0 441,52 622,155 180,104 323,246 427,427 104,181 156,391 156,631 0,234 -51,443 -154,626 -103,184 -246,327 -429,431 -183,104 -390,157 -622,160zm-2140 -31l0 -309c-66,85 -144,154 -233,207 -149,89 -321,133 -516,133 -217,0 -412,-51 -586,-153 -173,-102 -309,-244 -408,-424 -99,-181 -148,-394 -148,-640 0,-246 49,-459 148,-640 99,-181 235,-321 408,-422 173,-101 369,-151 586,-151 189,0 358,44 507,131 83,48 156,111 220,187l0 -1216 524 0 0 3297 -503 0zm-685 -444c127,0 240,-30 340,-89 100,-59 180,-145 241,-258 61,-113 91,-244 91,-395 0,-154 -30,-287 -91,-398 -61,-111 -141,-196 -241,-255 -100,-59 -214,-89 -340,-89 -127,0 -240,30 -340,89 -100,59 -180,144 -241,255 -61,111 -91,244 -91,398 0,151 30,283 91,395 61,113 141,198 241,258 100,59 214,89 340,89z"/>
  <path class="fil1" d="M5663 2630c-2,97 -82,175 -180,175 -98,0 -177,-78 -180,-175l359 0zm677 -535c204,0 370,166 370,370 0,204 -166,370 -370,370 -204,0 -370,-166 -370,-370 0,-204 166,-370 370,-370zm-1726 0c204,0 370,166 370,370 0,204 -166,370 -370,370 -204,0 -370,-166 -370,-370 0,-204 166,-370 370,-370zm1510 -1047l-1263 0c-287,0 -549,118 -738,307 -189,189 -307,451 -307,738l0 560c0,287 118,549 307,738 189,189 451,307 738,307l1263 0c287,0 549,-118 738,-307 189,-189 307,-451 307,-738l0 -560c0,-287 -118,-549 -307,-738 -189,-189 -451,-307 -738,-307zm-1282 -79l1302 0c307,0 586,125 788,328 202,202 328,481 328,788l0 578c0,307 -125,586 -328,788 -202,202 -481,328 -788,328l-1302 0c-307,0 -586,-125 -788,-328 -202,-202 -328,-481 -328,-788l0 -578c0,-307 125,-586 328,-788 202,-202 481,-328 788,-328zm1994 -185c21,10 42,21 62,33l2 1 0 0c405,231 680,667 680,1165l0 132 111 0c69,0 126,57 126,126l0 447c0,69 -57,126 -126,126l-117 0c-64,679 -639,1214 -1333,1214l-1495 0c-694,0 -1270,-536 -1333,-1214l-117 0c-69,0 -126,-57 -126,-126l0 -447c0,-69 57,-126 126,-126l111 0 0 -132c0,-552 338,-1029 818,-1233l0 0 0 0c90,-38 185,-67 283,-85l2178 -653c16,-8 33,-12 51,-12 65,0 118,53 118,118 0,18 -4,36 -12,51l0 0 -158 433c-13,77 70,137 150,182z"/>
 </g>
</svg>
