<?xml version="1.0" encoding="UTF-8"?>
<!DOCTYPE svg PUBLIC "-//W3C//DTD SVG 1.1//EN" "http://www.w3.org/Graphics/SVG/1.1/DTD/svg11.dtd">
<!-- Creator: CorelDRAW X5 -->
<svg xmlns="http://www.w3.org/2000/svg" xml:space="preserve" width="142.797mm" height="47.2045mm" style="shape-rendering:geometricPrecision; text-rendering:geometricPrecision; image-rendering:optimizeQuality; fill-rule:evenodd; clip-rule:evenodd"
viewBox="0 0 14416 4766"
 xmlns:xlink="http://www.w3.org/1999/xlink">
 <defs>
  <style type="text/css">
   <![CDATA[
    .fil1 {fill:#FEFEFE;fill-rule:nonzero}
    .fil0 {fill:#FF1F43;fill-rule:nonzero}
   ]]>
  </style>
 </defs>
 <g id="Capa_x0020_1">
  <metadata id="CorelCorpID_0Corel-Layer"/>
  <path class="fil0" d="M0 0l2325 0 0 475c-501,580 -1204,1447 -1320,2239l-546 0c71,-749 819,-1765 1305,-2251l-1764 0 0 -463z"/>
  <polygon class="fil0" points="2847,0 3363,0 3363,464 2847,464 "/>
  <polygon class="fil1" points="2847,733 3363,733 3363,2714 2847,2714 "/>
  <path class="fil1" d="M4420 2295l789 0c404,0 834,-131 834,-912 0,-867 -550,-920 -864,-920l-759 0 0 1832zm-561 -2250l1439 0c1047,0 1305,598 1305,1361 0,576 -262,1308 -1170,1308l-1574 0 0 -2669z"/>
  <path class="fil1" d="M8787 1525c-64,-396 -415,-516 -669,-516 -239,0 -576,112 -662,516l1331 0zm-1331 329c11,221 161,561 673,561 340,0 490,-120 591,-284l561 0c-112,221 -381,658 -1136,658 -893,0 -1226,-520 -1226,-1047 0,-662 490,-1084 1192,-1084 878,0 1215,542 1215,1121l0 75 -1869 0z"/>
  <path class="fil1" d="M11291 1727c-150,64 -310,82 -677,123 -389,45 -482,131 -482,299 0,262 239,310 415,310 277,0 744,-105 744,-542l0 -191zm516 535c0,108 78,112 112,112 49,0 127,-4 168,-11l0 363c-101,19 -191,45 -366,45 -336,0 -374,-179 -389,-254 -101,97 -351,273 -931,273 -516,0 -807,-232 -807,-621 0,-546 561,-594 890,-624 740,-71 819,-97 819,-250 0,-228 -262,-284 -561,-284 -340,0 -523,108 -542,329l-505 0c75,-520 460,-680 1047,-680 1035,0 1065,407 1065,665l0 938z"/>
  <path class="fil1" d="M12772 2093c15,299 359,344 546,344 258,0 538,-67 538,-254 0,-153 -86,-206 -643,-280 -613,-82 -935,-153 -935,-606 0,-564 658,-639 991,-639 307,0 1043,45 1073,680l-538 0c-41,-295 -385,-329 -561,-329 -292,0 -449,123 -449,228 0,161 49,187 546,258 650,93 1077,157 1077,617 0,505 -482,677 -1095,677 -422,0 -1091,-90 -1110,-695l561 0z"/>
  <path class="fil1" d="M3743 4766c-42,0 -82,-4 -120,-12 -37,-8 -72,-20 -105,-36 -33,-16 -63,-36 -91,-60l0 0 52 -68 0 0c37,32 77,56 121,72 44,16 92,24 143,24 75,0 133,-15 174,-44 41,-30 61,-71 61,-125l0 -1c0,-36 -10,-64 -30,-84 -20,-20 -46,-34 -79,-44 -32,-10 -67,-19 -105,-26 -35,-7 -70,-14 -105,-23 -35,-8 -67,-20 -96,-35 -29,-15 -52,-36 -70,-64 -18,-27 -26,-64 -26,-109l0 -1c0,-81 27,-144 81,-189 54,-45 130,-67 229,-67 46,0 92,8 137,23 45,15 89,38 132,69l0 0 -51 68 0 0c-38,-26 -74,-46 -111,-59 -36,-13 -72,-19 -107,-19 -71,0 -127,15 -166,45 -39,30 -59,72 -59,127l0 1c0,36 11,63 33,82 22,19 51,33 87,43 35,10 73,18 113,26 34,7 67,15 100,24 33,9 63,22 90,38 27,16 48,38 64,65 16,27 24,63 24,106l0 1c0,80 -28,143 -84,187 -56,44 -135,66 -237,66z"/>
  <path id="1" class="fil1" d="M4745 4766c-65,0 -121,-13 -166,-38 -46,-25 -81,-62 -105,-110 -24,-48 -36,-106 -36,-174l0 -247c0,-68 12,-127 36,-175 24,-48 59,-84 105,-110 46,-25 101,-38 166,-38 65,0 121,13 166,38 46,25 81,62 105,110 24,48 36,106 36,175l0 247c0,68 -12,126 -36,174 -24,48 -59,85 -105,110 -46,25 -101,38 -166,38zm0 -81c70,0 124,-21 163,-62 39,-41 58,-100 58,-175l0 -256c0,-75 -19,-134 -58,-175 -38,-41 -93,-62 -163,-62 -70,0 -124,21 -163,62 -39,41 -58,100 -58,175l0 256c0,75 19,134 58,175 38,41 93,62 163,62z"/>
  <path id="12" class="fil1" d="M5469 4757l0 -874 87 0 0 874 -87 0zm60 -386l0 -80 424 0 0 80 -424 0zm0 -407l0 -81 490 0 0 81 -490 0z"/>
  <path id="123" class="fil1" d="M6520 4757l0 -838 87 0 0 838 -87 0zm-265 -793l0 -81 616 0 0 81 -616 0z"/>
  <polygon id="1234" class="fil1" points="7379,4634 7570,3883 7630,3883 7821,4634 8005,3883 8102,3883 7865,4757 7776,4757 7603,4068 7423,4757 7334,4757 7097,3883 7194,3883 "/>
  <path id="12345" class="fil1" d="M8363 4757l322 -874 104 0 322 874 -96 0 -278 -783 -278 783 -96 0zm148 -212l0 -81 460 0 0 81 -460 0z"/>
  <path id="123456" class="fil1" d="M9516 4387l0 -80 298 0c49,0 89,-16 118,-47 30,-32 45,-73 45,-125l0 0c0,-52 -15,-93 -45,-125 -30,-31 -69,-47 -119,-47l-298 0 0 -81 293 0c51,0 95,11 133,32 38,21 68,50 89,88 21,38 32,82 32,133l0 0c0,50 -11,95 -32,132 -21,38 -51,67 -89,88 -38,21 -82,32 -133,32l-293 0zm-54 370l0 -874 87 0 0 874 -87 0zm534 0l-200 -397 80 -27 224 424 -103 0z"/>
  <path id="1234567" class="fil1" d="M10483 4757l0 -874 87 0 0 874 -87 0zm59 0l0 -81 502 0 0 81 -502 0zm0 -394l0 -81 436 0 0 81 -436 0zm0 -399l0 -81 502 0 0 81 -502 0z"/>
 </g>
</svg>
