<?xml version="1.0" encoding="UTF-8"?>
<!DOCTYPE svg PUBLIC "-//W3C//DTD SVG 1.1//EN" "http://www.w3.org/Graphics/SVG/1.1/DTD/svg11.dtd">
<!-- Creator: CorelDRAW X5 -->
<svg xmlns="http://www.w3.org/2000/svg" xml:space="preserve" width="188.906mm" height="124.759mm" style="shape-rendering:geometricPrecision; text-rendering:geometricPrecision; image-rendering:optimizeQuality; fill-rule:evenodd; clip-rule:evenodd"
viewBox="0 0 198 131"
 xmlns:xlink="http://www.w3.org/1999/xlink">
 <defs>
  <style type="text/css">
   <![CDATA[
    .fil1 {fill:#ED3237}
    .fil0 {fill:#373435;fill-rule:nonzero}
   ]]>
  </style>
 </defs>
 <g id="Capa_x0020_1">
  <metadata id="CorelCorpID_0Corel-Layer"/>
  <path class="fil0" d="M20 131c-4,0 -7,-1 -10,-3 -3,-2 -5,-4 -7,-8 -2,-3 -3,-7 -3,-11 0,-4 1,-8 3,-11 2,-3 4,-6 7,-8 3,-2 7,-3 10,-3 3,0 6,1 9,2 3,2 5,4 6,7 2,3 2,7 2,12 0,5 -1,9 -2,12 -2,3 -4,6 -6,7 -3,2 -6,2 -9,2zm1 -8c2,0 4,-1 6,-2 2,-1 3,-3 4,-5 1,-2 2,-4 2,-7 0,-3 -1,-5 -2,-7 -1,-2 -3,-3 -4,-5 -2,-1 -4,-2 -6,-2 -2,0 -4,1 -6,2 -2,1 -3,3 -4,5 -1,2 -2,4 -2,7 0,3 1,5 2,7 1,2 3,4 4,5 2,1 4,2 6,2zm12 8l0 -10 0 -11 -1 -11 0 -26 9 0 0 59 -9 0zm38 1c-4,0 -8,-1 -11,-3 -3,-2 -6,-4 -8,-8 -2,-3 -3,-7 -3,-11 0,-4 1,-8 3,-11 2,-3 4,-6 8,-8 3,-2 7,-3 11,-3 4,0 8,1 11,3 3,2 6,4 8,8 2,3 3,7 3,11 0,4 -1,8 -3,11 -2,3 -4,6 -8,8 -3,2 -7,3 -11,3zm0 -8c2,0 4,-1 6,-2 2,-1 3,-3 4,-5 1,-2 2,-4 2,-7 0,-3 -1,-5 -2,-7 -1,-2 -2,-3 -4,-5 -2,-1 -4,-2 -6,-2 -2,0 -4,1 -6,2 -2,1 -3,3 -4,5 -1,2 -2,4 -2,7 0,3 1,5 2,7 1,2 2,4 4,5 2,1 4,2 6,2zm48 8c-4,0 -8,-1 -11,-3 -3,-2 -6,-4 -8,-8 -2,-3 -3,-7 -3,-11 0,-4 1,-8 3,-11 2,-3 4,-6 8,-8 3,-2 7,-3 11,-3 4,0 7,1 10,2 3,2 5,4 7,7l-7 4c-1,-2 -3,-3 -4,-4 -2,-1 -4,-1 -6,-1 -2,0 -4,1 -6,2 -2,1 -3,3 -4,5 -1,2 -2,4 -2,7 0,3 1,5 2,7 1,2 3,3 4,5 2,1 4,2 6,2 2,0 4,0 6,-1 2,-1 3,-2 4,-4l7 4c-2,3 -4,6 -7,7 -3,2 -6,3 -10,3zm49 -1l0 -9 -1 -2 0 -15c0,-3 -1,-5 -2,-7 -2,-2 -4,-2 -8,-2 -2,0 -4,0 -7,1 -2,1 -4,2 -6,3l-4 -7c2,-2 5,-3 8,-4 3,-1 6,-1 9,-1 6,0 10,1 13,4 3,3 5,7 5,14l0 25 -9 0zm-13 1c-3,0 -6,-1 -8,-2 -2,-1 -4,-3 -5,-5 -1,-2 -2,-4 -2,-7 0,-2 1,-5 2,-6 1,-2 3,-3 5,-5 2,-1 6,-2 10,-2l12 0 0 7 -11 0c-3,0 -5,1 -6,2 -1,1 -2,2 -2,4 0,2 1,3 2,4 1,1 3,2 6,2 2,0 4,-1 6,-2 2,-1 3,-3 4,-5l2 6c-1,2 -3,4 -5,6 -2,1 -5,2 -9,2zm32 -1l0 -42 9 0 0 42 -9 0zm5 -49c-2,0 -3,-1 -4,-2 -1,-1 -2,-3 -2,-4 0,-2 1,-3 2,-4 1,-1 3,-2 4,-2 2,0 3,1 4,2 1,1 2,2 2,4 0,2 -1,3 -2,4 -1,1 -3,2 -4,2z"/>
  <path class="fil1" d="M101 47c0,2 -1,3 -3,3 -2,0 -3,-1 -3,-3l6 0zm12 -10c4,0 7,3 7,7 0,4 -3,7 -7,7 -4,0 -7,-3 -7,-7 0,-4 3,-7 7,-7zm-31 0c4,0 7,3 7,7 0,4 -3,7 -7,7 -4,0 -7,-3 -7,-7 0,-4 3,-7 7,-7zm27 -19l-22 0c-5,0 -10,2 -13,5 -3,3 -5,8 -5,13l0 10c0,5 2,10 5,13 3,3 8,5 13,5l22 0c5,0 10,-2 13,-5 3,-3 5,-8 5,-13l0 -10c0,-5 -2,-10 -5,-13 -3,-3 -8,-5 -13,-5zm-23 -1l23 0c5,0 10,2 14,6 4,4 6,9 6,14l0 10c0,5 -2,10 -6,14 -4,4 -9,6 -14,6l-23 0c-5,0 -10,-2 -14,-6 -4,-4 -6,-9 -6,-14l0 -10c0,-5 2,-10 6,-14 4,-4 9,-6 14,-6zm35 -3c0,0 1,0 1,1l0 0 0 0c7,4 12,12 12,21l0 2 2 0c1,0 2,1 2,2l0 8c0,1 -1,2 -2,2l-2 0c-1,12 -11,22 -24,22l-27 0c-12,0 -23,-10 -24,-22l-2 0c-1,0 -2,-1 -2,-2l0 -8c0,-1 1,-2 2,-2l2 0 0 -2c0,-10 6,-18 15,-22l0 0 0 0c2,-1 3,-1 5,-2l39 -12c0,0 1,0 1,0 1,0 2,1 2,2 0,0 0,1 0,1l0 0 -3 8c0,1 1,2 3,3z"/>
 </g>
</svg>
