<?xml version="1.0" encoding="UTF-8"?>
<!DOCTYPE svg PUBLIC "-//W3C//DTD SVG 1.1//EN" "http://www.w3.org/Graphics/SVG/1.1/DTD/svg11.dtd">
<!-- Creator: CorelDRAW X5 -->
<svg xmlns="http://www.w3.org/2000/svg" xml:space="preserve" width="194.836mm" height="42.2671mm" style="shape-rendering:geometricPrecision; text-rendering:geometricPrecision; image-rendering:optimizeQuality; fill-rule:evenodd; clip-rule:evenodd"
viewBox="0 0 1395 303"
 xmlns:xlink="http://www.w3.org/1999/xlink">
 <defs>
  <style type="text/css">
   <![CDATA[
    .fil1 {fill:#FEFEFE;fill-rule:nonzero}
    .fil0 {fill:#FF1F43;fill-rule:nonzero}
   ]]>
  </style>
 </defs>
 <g id="Capa_x0020_1">
  <metadata id="CorelCorpID_0Corel-Layer"/>
  <path class="fil0" d="M349 126c0,0 -7,-56 -51,-24 -41,30 -67,102 -43,130 20,24 63,-3 98,-65 51,-89 21,-139 -13,-167 0,0 111,-10 51,157 -46,128 -154,185 -173,115 -17,-63 27,-147 64,-179 38,-33 73,-16 67,32zm8 -78c0,0 -32,-27 -88,26 -61,58 -102,170 -69,227 0,0 -43,-48 4,-152 46,-104 99,-136 124,-142 0,0 21,20 29,41z"/>
  <path class="fil1" d="M121 56l-100 0 0 206 29 0 0 -69 71 0c23,0 40,-6 52,-17 11,-11 17,-28 17,-51 0,-23 -6,-40 -17,-51 -11,-11 -29,-17 -52,-17zm-71 112l0 -87 71 0c26,0 39,14 39,43 0,29 -13,43 -39,43l-71 0z"/>
  <path id="1" class="fil1" d="M510 106c-9,0 -17,1 -23,4 -6,3 -11,7 -15,13l-2 0 0 -15 -28 0 0 153 28 0 0 -89c0,-15 3,-26 10,-32 6,-7 17,-10 30,-10 3,0 6,0 9,0 3,0 7,0 11,1l0 -23c-3,-1 -6,-1 -10,-2 -3,0 -6,-1 -10,-1z"/>
  <path id="12" class="fil1" d="M626 240c-5,0 -9,0 -13,-1 -3,-1 -6,-2 -8,-5 -2,-2 -3,-5 -4,-9 -1,-4 -1,-9 -1,-15l0 -78 54 0 0 -24 -54 0 0 -40 -28 0 0 40 -22 0 0 24 22 0 0 79c0,10 1,19 3,25 2,7 5,12 8,16 4,4 9,7 15,9 6,2 14,3 23,3 4,0 7,0 11,-1 3,0 7,-1 11,-2 4,-1 8,-1 13,-2l0 -23c-6,1 -11,2 -16,2 -5,0 -9,1 -14,1z"/>
  <path id="123" class="fil1" d="M749 106c-9,0 -18,1 -26,2 -9,1 -17,3 -26,5l0 23c9,-2 17,-4 26,-5 8,-1 17,-2 24,-2 10,0 19,1 25,3 6,2 11,6 13,11 3,5 4,12 4,21l0 4c-9,-1 -17,-1 -24,-1 -6,0 -12,0 -15,0 -17,0 -30,2 -40,5 -10,3 -18,9 -23,16 -5,7 -7,16 -7,27 0,17 5,29 15,37 10,8 24,12 43,12 12,0 22,-2 30,-5 8,-3 15,-8 20,-14l2 0 0 16 28 0 0 -89c0,-16 -2,-29 -7,-39 -5,-10 -12,-17 -22,-22 -10,-4 -23,-7 -39,-7zm-42 110c0,-6 1,-11 4,-15 3,-4 8,-7 14,-9 7,-2 15,-3 26,-3 3,0 7,0 11,0 4,0 8,0 13,1 5,0 9,1 14,1l0 7c0,14 -4,25 -12,32 -8,7 -20,11 -35,11 -12,0 -21,-2 -27,-6 -6,-4 -8,-10 -8,-19z"/>
  <path id="1234" class="fil1" d="M895 240c-5,0 -9,-1 -12,-2 -3,-2 -5,-5 -5,-9 -1,-4 -1,-10 -1,-18l0 -167 -28 0 0 167c0,10 1,18 2,25 1,7 4,12 7,17 3,4 8,7 13,9 6,2 13,3 21,3 4,0 8,0 12,-1 4,0 8,-1 12,-2l0 -23c-2,0 -5,0 -7,1 -3,0 -5,0 -7,0 -2,0 -4,0 -6,0z"/>
  <path id="12345" class="fil1" d="M1103 56l-87 0 0 206 95 0c2,0 5,0 10,0 4,0 9,-1 14,-2 5,-1 10,-3 16,-5 5,-2 10,-5 15,-9 4,-4 8,-9 11,-15 3,-6 4,-14 4,-23 0,-13 -3,-23 -9,-31 -6,-8 -15,-14 -27,-19l0 -2c6,-3 11,-7 15,-11 4,-4 7,-9 9,-15 2,-6 3,-12 3,-19 0,-9 -1,-16 -4,-23 -3,-6 -6,-11 -11,-15 -4,-4 -9,-7 -15,-9 -5,-2 -11,-4 -16,-5 -5,-1 -10,-2 -14,-2 -4,0 -7,0 -10,0zm-58 180l0 -65 66 0c8,0 15,1 21,4 6,3 10,7 13,12 3,5 4,11 4,18 0,10 -3,18 -10,23 -6,5 -16,8 -29,8l-66 0zm0 -91l0 -65 58 0c13,0 22,3 29,8 6,5 10,13 10,23 0,7 -1,13 -4,18 -3,5 -7,9 -13,12 -6,3 -13,4 -21,4l-58 0z"/>
  <path id="123456" class="fil1" d="M1210 109l0 153 28 0 0 -153 -28 0zm-4 -46c0,5 2,9 5,12 3,3 7,4 13,5 6,0 10,-2 13,-5 3,-3 5,-7 5,-12l0 -1c0,-5 -2,-9 -5,-12 -3,-3 -7,-4 -13,-5 -6,0 -10,2 -13,5 -3,3 -5,7 -5,12l0 1z"/>
  <polygon id="1234567" class="fil1" points="1266,109 1266,132 1361,132 1266,238 1266,262 1395,262 1395,238 1300,238 1395,132 1395,109 "/>
 </g>
</svg>
