<?xml version="1.0" encoding="UTF-8"?>
<!DOCTYPE svg PUBLIC "-//W3C//DTD SVG 1.1//EN" "http://www.w3.org/Graphics/SVG/1.1/DTD/svg11.dtd">
<!-- Creator: CorelDRAW X5 -->
<svg xmlns="http://www.w3.org/2000/svg" xml:space="preserve" width="77.8246mm" height="52.9341mm" style="shape-rendering:geometricPrecision; text-rendering:geometricPrecision; image-rendering:optimizeQuality; fill-rule:evenodd; clip-rule:evenodd"
viewBox="0 0 5663 3852"
 xmlns:xlink="http://www.w3.org/1999/xlink">
 <defs>
  <style type="text/css">
   <![CDATA[
    .str0 {stroke:#373435;stroke-width:15.0925}
    .str1 {stroke:#0F62AC;stroke-width:22.646}
    .fil2 {fill:none;fill-rule:nonzero}
    .fil3 {fill:#0F62AC}
    .fil4 {fill:#FEFEFE}
    .fil5 {fill:#2957A4;fill-rule:nonzero}
    .fil1 {fill:#373435;fill-rule:nonzero}
    .fil6 {fill:#FEFEFE;fill-rule:nonzero}
    .fil0 {fill:#FEFEFE;fill-rule:nonzero}
   ]]>
  </style>
 </defs>
 <g id="Capa_x0020_1">
  <metadata id="CorelCorpID_0Corel-Layer"/>
  <path class="fil0 str0" d="M5403 3844l-5143 0c-139,0 -252,-113 -252,-252l0 -3332c0,-139 113,-252 252,-252l5143 0c139,0 252,113 252,252l0 3332c0,139 -113,252 -252,252z"/>
  <path class="fil1" d="M344 3500l-42 0 0 96 -30 0 0 -237 66 0c23,0 41,6 53,18 12,12 18,30 18,53 0,15 -3,28 -10,38 -6,11 -16,19 -27,25l46 101 0 2 -32 0 -42 -96zm-42 -26l36 0c12,0 22,-4 30,-12 7,-8 11,-19 11,-32 0,-30 -14,-46 -41,-46l-36 0 0 90zm178 122l-30 0 0 -237 30 0 0 237zm217 -101c-11,15 -25,22 -40,22 -17,0 -31,-7 -41,-22 -10,-15 -15,-34 -15,-57 0,-25 6,-45 17,-60 11,-15 26,-22 45,-22 20,0 36,9 47,26 11,17 17,41 17,72l0 9c0,26 -2,48 -6,64 -4,16 -10,29 -17,39 -8,10 -18,18 -29,23 -12,5 -27,8 -45,8l0 -25 5 0c20,0 36,-7 46,-19 11,-12 16,-31 17,-58zm-35 -3c7,0 14,-3 20,-9 7,-6 12,-13 15,-23l0 -13c0,-20 -3,-36 -10,-48 -7,-12 -15,-19 -25,-19 -10,0 -19,5 -25,15 -6,10 -9,24 -9,40 0,16 3,30 9,40 6,10 14,16 24,16zm232 3c0,35 -5,61 -15,79 -10,17 -26,26 -48,26 -21,0 -37,-8 -47,-25 -10,-17 -16,-42 -16,-75l0 -41c0,-35 5,-61 15,-78 10,-17 26,-26 48,-26 21,0 37,8 47,24 10,16 16,41 16,74l0 42zm-29 -41c0,-25 -3,-44 -8,-56 -6,-12 -14,-18 -26,-18 -12,0 -21,6 -26,18 -6,12 -8,29 -9,53l0 49c0,25 3,44 9,56 6,13 15,19 26,19 12,0 20,-6 26,-18 6,-12 8,-30 9,-54l0 -49zm193 41c0,35 -5,61 -15,79 -10,17 -26,26 -48,26 -21,0 -37,-8 -47,-25 -10,-17 -16,-42 -16,-75l0 -41c0,-35 5,-61 15,-78 10,-17 26,-26 48,-26 21,0 37,8 47,24 10,16 16,41 16,74l0 42zm-29 -41c0,-25 -3,-44 -8,-56 -6,-12 -14,-18 -26,-18 -12,0 -21,6 -26,18 -6,12 -8,29 -9,53l0 49c0,25 3,44 9,56 6,13 15,19 26,19 12,0 20,-6 26,-18 6,-12 8,-30 9,-54l0 -49zm193 41c0,35 -5,61 -15,79 -10,17 -26,26 -48,26 -21,0 -37,-8 -47,-25 -10,-17 -16,-42 -16,-75l0 -41c0,-35 5,-61 15,-78 10,-17 26,-26 48,-26 21,0 37,8 47,24 10,16 16,41 16,74l0 42zm-29 -41c0,-25 -3,-44 -8,-56 -6,-12 -14,-18 -26,-18 -12,0 -21,6 -26,18 -6,12 -8,29 -9,53l0 49c0,25 3,44 9,56 6,13 15,19 26,19 12,0 20,-6 26,-18 6,-12 8,-30 9,-54l0 -49zm122 54l-67 0 0 -25 67 0 0 25zm100 -58l45 -91 35 0 -62 118 63 120 -35 0 -46 -93 -46 93 -35 0 63 -120 -62 -118 35 0 45 91zm183 0l45 -91 35 0 -62 118 63 120 -35 0 -46 -93 -46 93 -35 0 63 -120 -62 -118 35 0 45 91zm183 0l45 -91 35 0 -62 118 63 120 -35 0 -46 -93 -46 93 -35 0 63 -120 -62 -118 35 0 45 91zm183 0l45 -91 35 0 -62 118 63 120 -35 0 -46 -93 -46 93 -35 0 63 -120 -62 -118 35 0 45 91z"/>
  <path class="fil1" d="M2672 3596l-30 0 0 -237 30 0 0 237zm124 -96l-42 0 0 96 -30 0 0 -237 66 0c23,0 41,6 53,18 12,12 18,30 18,53 0,15 -3,28 -10,38 -6,11 -16,19 -27,25l46 101 0 2 -32 0 -42 -96zm-42 -26l36 0c12,0 22,-4 30,-12 7,-8 11,-19 11,-32 0,-30 -14,-46 -41,-46l-36 0 0 90zm257 60l-80 0 -18 62 -31 0 76 -237 26 0 76 237 -31 0 -19 -62zm-72 -26l65 0 -32 -108 -32 108zm192 -150l62 194 62 -194 38 0 0 237 -30 0 0 -92 3 -93 -62 185 -23 0 -62 -184 3 92 0 92 -30 0 0 -237 38 0zm262 149l-67 0 0 -25 67 0 0 25zm64 89l-30 0 0 -237 30 0 0 237zm156 -60c0,-12 -3,-21 -10,-27 -6,-6 -18,-12 -35,-18 -17,-6 -29,-12 -38,-19 -9,-7 -15,-14 -20,-22 -4,-8 -7,-18 -7,-29 0,-19 6,-34 19,-46 12,-12 29,-18 49,-18 14,0 26,3 37,9 11,6 19,15 25,26 6,11 9,23 9,37l-30 0c0,-15 -3,-26 -11,-34 -7,-8 -17,-12 -30,-12 -12,0 -21,3 -28,10 -7,7 -10,16 -10,28 0,10 4,18 11,25 7,7 18,13 33,18 23,8 40,17 50,29 10,11 15,26 15,44 0,19 -6,35 -19,46 -12,12 -29,17 -51,17 -14,0 -26,-3 -38,-9 -12,-6 -21,-14 -27,-25 -7,-11 -10,-23 -10,-38l30 0c0,15 4,26 12,34 8,8 19,12 33,12 13,0 23,-3 30,-10 7,-7 10,-16 10,-28zm223 -38c0,32 -7,57 -21,75 -14,18 -33,26 -59,26 -24,0 -44,-9 -58,-26 -14,-17 -21,-41 -22,-72l0 -45c0,-32 7,-57 21,-75 14,-18 34,-27 59,-27 25,0 44,9 58,26 14,17 21,42 21,74l0 43zm-30 -42c0,-25 -4,-44 -12,-56 -8,-12 -21,-18 -38,-18 -16,0 -29,6 -37,19 -8,12 -13,31 -13,55l0 43c0,24 4,43 13,55 8,13 21,19 38,19 17,0 29,-6 37,-18 8,-12 12,-30 13,-54l0 -45zm240 38c-11,15 -25,22 -40,22 -17,0 -31,-7 -41,-22 -10,-15 -15,-34 -15,-57 0,-25 6,-45 17,-60 11,-15 26,-22 45,-22 20,0 36,9 47,26 11,17 17,41 17,72l0 9c0,26 -2,48 -6,64 -4,16 -10,29 -17,39 -8,10 -18,18 -29,23 -12,5 -27,8 -45,8l0 -25 5 0c20,0 36,-7 46,-19 11,-12 16,-31 17,-58zm-35 -3c7,0 14,-3 20,-9 7,-6 12,-13 15,-23l0 -13c0,-20 -3,-36 -10,-48 -7,-12 -15,-19 -25,-19 -10,0 -19,5 -25,15 -6,10 -9,24 -9,40 0,16 3,30 9,40 6,10 14,16 24,16zm232 3c0,35 -5,61 -15,79 -10,17 -26,26 -48,26 -21,0 -37,-8 -47,-25 -10,-17 -16,-42 -16,-75l0 -41c0,-35 5,-61 15,-78 10,-17 26,-26 48,-26 21,0 37,8 47,24 10,16 16,41 16,74l0 42zm-29 -41c0,-25 -3,-44 -8,-56 -6,-12 -14,-18 -26,-18 -12,0 -21,6 -26,18 -6,12 -8,29 -9,53l0 49c0,25 3,44 9,56 6,13 15,19 26,19 12,0 20,-6 26,-18 6,-12 8,-30 9,-54l0 -49zm193 41c0,35 -5,61 -15,79 -10,17 -26,26 -48,26 -21,0 -37,-8 -47,-25 -10,-17 -16,-42 -16,-75l0 -41c0,-35 5,-61 15,-78 10,-17 26,-26 48,-26 21,0 37,8 47,24 10,16 16,41 16,74l0 42zm-29 -41c0,-25 -3,-44 -8,-56 -6,-12 -14,-18 -26,-18 -12,0 -21,6 -26,18 -6,12 -8,29 -9,53l0 49c0,25 3,44 9,56 6,13 15,19 26,19 12,0 20,-6 26,-18 6,-12 8,-30 9,-54l0 -49zm152 142l-29 0 0 -201 -50 22 0 -27 74 -32 5 0 0 239zm82 -16c0,-5 2,-10 5,-13 3,-4 8,-5 14,-5 6,0 11,2 14,5 3,3 5,8 5,13 0,5 -2,9 -5,13 -3,3 -8,5 -14,5 -6,0 -11,-2 -14,-5 -3,-3 -5,-8 -5,-13zm0 -144c0,-5 2,-10 5,-13 3,-4 8,-5 14,-5 6,0 11,2 14,5 3,3 5,8 5,13 0,5 -2,9 -5,13 -3,3 -8,5 -14,5 -6,0 -11,-2 -14,-5 -3,-3 -5,-8 -5,-13zm147 13l45 -91 35 0 -62 118 63 120 -35 0 -46 -93 -46 93 -35 0 63 -120 -62 -118 35 0 45 91zm183 0l45 -91 35 0 -62 118 63 120 -35 0 -46 -93 -46 93 -35 0 63 -120 -62 -118 35 0 45 91zm183 0l45 -91 35 0 -62 118 63 120 -35 0 -46 -93 -46 93 -35 0 63 -120 -62 -118 35 0 45 91zm183 0l45 -91 35 0 -62 118 63 120 -35 0 -46 -93 -46 93 -35 0 63 -120 -62 -118 35 0 45 91z"/>
  <line class="fil2 str1" x1="247" y1="3175" x2="5402" y2= "3175" />
  <path class="fil3" d="M2723 2939l-2230 0c-122,0 -220,-99 -220,-220l0 -2230c0,-122 99,-220 220,-220l2230 0c122,0 220,99 220,220l0 2230c0,122 -99,220 -220,220z"/>
  <path class="fil4" d="M2596 2091c73,-147 114,-313 114,-488 0,-175 -41,-341 -114,-488l-1976 0c-73,147 -114,313 -114,488 0,175 41,341 114,488l1976 0z"/>
  <path class="fil3" d="M2452 1838l0 0 -128 0 0 -267 -119 182 -3 0 -118 -181 0 266 -126 0 0 -465 136 0 111 180 111 -180 136 0 0 465zm-649 0l0 0 -34 -83 -179 0 -33 83 -135 0 198 -468 124 0 198 468 -138 0zm-546 0l0 0 -94 -141 -56 0 0 141 -129 0 0 -465 220 0c71,0 120,19 151,50 27,27 41,62 41,108l0 1c0,71 -38,118 -96,143l111 162 -149 0zm-364 0l0 0 -129 0 0 -465 129 0 0 465zm298 -353l0 0 -84 0 0 112 85 0c44,0 69,-21 69,-55l0 -1c0,-37 -27,-55 -70,-55zm423 187l131 0 -65 -166 -66 166z"/>
  <path class="fil4" d="M1608 502c396,0 743,209 937,522l-227 0c-168,-206 -424,-337 -710,-337 -286,0 -542,131 -710,337l-227 0c194,-313 541,-522 937,-522zm937 1681c-194,313 -541,522 -937,522 -396,0 -743,-209 -937,-522l227 0c168,206 424,337 710,337 286,0 542,-131 710,-337l227 0z"/>
  <path class="fil5" d="M5402 1378c-2,611 -496,1105 -1105,1104 -608,-2 -1100,-498 -1099,-1110 2,-611 496,-1105 1105,-1104 609,2 1100,498 1099,1110z"/>
  <polygon class="fil6" points="3623,1564 3694,1564 3694,1222 3623,1222 "/>
  <path class="fil6" d="M4049 1392c0,20 -5,38 -14,55 -9,16 -22,29 -38,38 -16,9 -34,13 -54,13 -30,0 -55,-10 -76,-30 -21,-20 -31,-45 -31,-75 0,-20 5,-39 14,-55 9,-17 22,-30 38,-39 16,-10 34,-14 54,-14 20,0 38,5 54,14 16,9 29,22 38,39 9,17 14,35 14,55zm30 103c27,-27 41,-61 41,-102 0,-25 -5,-48 -14,-70 -9,-22 -22,-41 -38,-56 -16,-15 -35,-28 -57,-37 -22,-9 -45,-13 -70,-13 -33,0 -63,8 -90,23 -27,15 -49,37 -64,64 -15,27 -23,56 -23,88 0,24 5,47 14,69 9,21 22,40 38,55 16,15 34,27 56,36 21,9 44,13 67,13l202 0 0 -69 -62 0z"/>
  <polygon class="fil6" points="4444,1222 4444,1441 4286,1222 4202,1222 4202,1564 4274,1564 4274,1328 4444,1564 4515,1564 4515,1222 "/>
  <polygon class="fil6" points="4828,1292 4828,1222 4593,1222 4593,1564 4828,1564 4828,1494 4664,1494 4664,1421 4797,1421 4797,1351 4664,1351 4664,1292 "/>
  <polygon class="fil6" points="4895,1222 4895,1292 5001,1292 5001,1564 5072,1564 5072,1292 5177,1292 5177,1222 "/>
  <path class="fil6" d="M3857 930c0,-14 12,-26 27,-25 14,0 26,13 25,27 0,14 -13,26 -27,25 -14,0 -26,-13 -25,-27z"/>
  <path class="fil6" d="M3932 870c0,-15 13,-28 29,-27 15,0 27,13 27,29 0,15 -13,28 -29,27 -15,0 -27,-13 -27,-29z"/>
  <path class="fil6" d="M4104 791c1,-17 15,-31 32,-31 17,1 31,15 30,33 -1,17 -15,31 -32,31 -17,-1 -31,-15 -30,-33z"/>
  <path class="fil6" d="M4292 770c1,-19 17,-35 36,-34 19,1 34,17 34,36 -1,19 -17,35 -36,34 -19,-1 -35,-17 -34,-36z"/>
  <path class="fil6" d="M4386 782c1,-20 18,-36 38,-36 20,1 36,18 36,38 -1,20 -18,36 -38,36 -20,-1 -36,-18 -36,-38z"/>
  <path class="fil6" d="M4476 810c1,-21 19,-38 40,-38 21,1 38,19 37,40 -1,21 -19,38 -40,37 -21,-1 -38,-19 -37,-40z"/>
  <path class="fil6" d="M4562 851c1,-22 19,-40 42,-39 22,1 40,20 39,42 -1,22 -19,40 -42,39 -22,-1 -40,-19 -39,-42z"/>
  <path class="fil6" d="M3622 1012c0,-12 11,-22 23,-22 12,0 22,11 22,23 0,12 -11,22 -23,22 -12,0 -22,-11 -22,-23z"/>
  <path class="fil6" d="M3687 914c0,-13 12,-24 25,-24 13,0 24,12 23,25 0,13 -12,24 -25,24 -13,0 -24,-12 -23,-25z"/>
  <path class="fil6" d="M3858 756c0,-15 13,-28 29,-27 15,0 27,13 27,29 0,15 -13,28 -29,27 -15,0 -27,-13 -27,-29z"/>
  <path class="fil6" d="M3959 699c1,-16 14,-29 31,-29 16,1 29,14 29,31 -1,16 -14,29 -31,29 -16,-1 -29,-14 -29,-31z"/>
  <path class="fil6" d="M4068 659c1,-17 15,-31 32,-31 17,1 31,15 30,33 -1,17 -15,31 -32,31 -17,-1 -31,-15 -30,-33z"/>
  <path class="fil6" d="M4182 637c1,-18 16,-33 34,-32 18,1 33,16 32,34 -1,18 -16,33 -34,32 -18,-1 -33,-16 -32,-34z"/>
  <path class="fil6" d="M4298 634c1,-19 17,-35 36,-34 19,1 35,17 34,36 -1,19 -17,35 -36,34 -19,-1 -35,-17 -34,-36z"/>
  <path class="fil6" d="M4410 648c1,-20 18,-36 38,-36 20,1 36,18 36,38 -1,20 -18,36 -38,36 -20,-1 -36,-18 -36,-38z"/>
  <path class="fil6" d="M4525 682c1,-21 19,-38 40,-38 21,1 38,19 37,40 -1,21 -19,38 -40,37 -21,-1 -38,-19 -37,-40z"/>
  <path class="fil6" d="M4629 733c1,-22 19,-40 42,-39 22,1 40,20 39,42 -1,22 -19,40 -42,39 -22,-1 -40,-20 -39,-42z"/>
  <path class="fil6" d="M4725 800c1,-23 20,-42 44,-41 23,1 42,20 41,44 -1,23 -20,42 -44,41 -23,-1 -42,-20 -41,-44z"/>
  <path class="fil6" d="M4809 881c1,-24 21,-44 45,-43 24,1 43,21 43,46 -1,24 -21,44 -45,43 -24,-1 -43,-21 -43,-46z"/>
  <path class="fil6" d="M3447 1751c1,-17 15,-30 32,-30 17,1 30,15 30,32 -1,17 -15,30 -32,30 -17,-1 -30,-15 -30,-32z"/>
  <path class="fil6" d="M3397 1623c1,-18 16,-32 33,-31 18,1 32,16 31,34 -1,18 -15,32 -33,31 -18,-1 -32,-16 -31,-34z"/>
  <path class="fil6" d="M3369 1484c1,-19 16,-34 35,-33 19,1 34,16 33,35 -1,19 -16,34 -35,33 -19,-1 -34,-16 -33,-35z"/>
  <path class="fil6" d="M3364 1342c1,-20 17,-36 37,-35 20,1 35,17 35,37 -1,20 -17,36 -37,35 -20,-1 -35,-17 -35,-37z"/>
  <path class="fil6" d="M3380 1202c1,-21 18,-37 39,-37 21,1 37,18 37,39 -1,21 -18,37 -39,37 -21,-1 -37,-18 -37,-39z"/>
  <path class="fil6" d="M3417 1066c1,-22 19,-39 41,-38 22,1 39,19 38,41 -1,22 -19,39 -41,38 -22,-1 -39,-19 -38,-41z"/>
  <path class="fil6" d="M3476 938c1,-23 20,-41 43,-40 23,1 41,20 40,43 -1,23 -20,41 -43,40 -23,-1 -41,-20 -40,-43z"/>
  <path class="fil6" d="M3554 821c1,-24 21,-43 44,-42 24,1 42,21 42,45 -1,24 -21,43 -45,42 -24,-1 -42,-21 -42,-45z"/>
  <path class="fil6" d="M3650 718c1,-24 21,-43 45,-42 24,1 42,21 42,45 -1,24 -21,43 -45,42 -24,-1 -42,-21 -42,-45z"/>
  <path class="fil6" d="M3760 632c1,-25 22,-44 46,-44 25,1 44,22 43,47 -1,25 -22,44 -46,44 -25,-1 -44,-22 -43,-47z"/>
  <path class="fil6" d="M3882 563c1,-26 22,-46 48,-45 26,1 46,23 45,48 -1,26 -22,46 -48,45 -26,-1 -46,-23 -45,-48z"/>
  <path class="fil6" d="M4013 516c1,-27 23,-48 50,-47 27,1 48,23 47,50 -1,27 -23,48 -50,47 -27,-1 -48,-23 -47,-50z"/>
  <path class="fil6" d="M4150 489c1,-28 24,-50 52,-49 28,1 50,24 49,52 -1,28 -24,50 -52,49 -28,-1 -50,-24 -49,-52z"/>
  <path class="fil6" d="M4289 485c1,-29 25,-52 54,-51 29,1 51,25 50,54 -1,29 -25,52 -54,51 -29,-1 -51,-25 -50,-54z"/>
  <path class="fil6" d="M4427 503c1,-30 26,-53 56,-52 30,1 53,26 52,56 -1,30 -26,53 -56,52 -30,-1 -53,-26 -52,-56z"/>
  <path class="fil6" d="M3766 828c0,-14 13,-26 27,-25 14,0 26,13 25,27 0,14 -12,26 -27,25 -14,0 -26,-13 -25,-27z"/>
  <path class="fil6" d="M4198 772c1,-18 16,-33 34,-32 18,1 33,16 32,34 -1,18 -16,33 -34,32 -18,-1 -33,-16 -32,-34z"/>
  <path class="fil6" d="M4015 823c1,-16 14,-29 31,-29 16,1 29,14 29,31 -1,16 -14,29 -31,29 -16,-1 -29,-14 -29,-31z"/>
  <path class="fil6" d="M3710 1782l29 0c4,0 7,0 10,-1 3,-1 5,-2 8,-3 2,-1 4,-3 5,-6 1,-3 2,-6 2,-9 0,-7 -2,-12 -6,-15 -4,-3 -10,-5 -19,-5l-29 0 0 39zm-18 73l0 -128 47 0c13,0 24,3 31,9 8,6 11,15 11,27 0,10 -3,18 -8,24 -5,6 -13,10 -23,11l33 57 -20 0 -32 -56 -22 0 0 56 -18 0z"/>
  <polygon class="fil6" points="3815,1854 3815,1726 3890,1726 3890,1742 3833,1742 3833,1779 3880,1779 3880,1796 3833,1796 3833,1838 3890,1838 3890,1854 "/>
  <path class="fil6" d="M3913 1790c0,-9 2,-18 5,-26 3,-8 8,-15 14,-21 6,-6 13,-11 21,-14 8,-3 17,-5 26,-5 9,0 18,2 26,5 8,3 15,8 22,15l-13 11c-5,-5 -10,-9 -16,-11 -6,-3 -12,-4 -19,-4 -7,0 -13,1 -19,4 -6,3 -11,6 -16,11 -4,5 -8,10 -10,16 -3,6 -4,13 -4,19 0,7 1,13 4,19 3,6 6,12 11,16 4,4 10,8 16,11 6,3 12,4 19,4 7,0 13,-1 19,-4 6,-3 11,-6 16,-11l12 12c-13,13 -28,19 -46,19 -12,0 -23,-3 -33,-9 -10,-6 -18,-14 -24,-24 -6,-10 -9,-21 -9,-34z"/>
  <path class="fil6" d="M4064 1790c0,9 2,18 7,25 4,8 10,14 18,18 8,4 16,7 25,7 9,0 17,-2 25,-7 8,-4 13,-10 18,-18 4,-8 6,-16 6,-25 0,-9 -2,-17 -6,-25 -4,-8 -10,-14 -18,-18 -8,-5 -16,-7 -25,-7 -9,0 -18,2 -25,7 -8,5 -13,11 -18,18 -4,8 -6,16 -6,25zm-18 0c0,-9 2,-18 5,-26 3,-8 8,-15 14,-21 6,-6 13,-11 21,-14 8,-4 17,-5 26,-5 9,0 18,2 26,5 8,3 15,8 21,14 6,6 11,13 14,21 3,8 5,17 5,26 0,9 -2,18 -5,26 -3,8 -8,15 -14,21 -6,6 -13,11 -21,14 -8,3 -17,5 -26,5 -9,0 -18,-2 -26,-5 -8,-3 -15,-8 -21,-14 -6,-6 -11,-13 -14,-21 -4,-8 -5,-17 -5,-26z"/>
  <path class="fil6" d="M4212 1816c-3,-8 -5,-17 -5,-26 0,-9 2,-18 5,-26 3,-8 8,-15 14,-21 6,-6 13,-11 21,-14 8,-3 17,-5 26,-5 9,0 18,2 27,5 9,4 16,9 22,15l-11 12c-5,-6 -10,-10 -17,-13 -7,-3 -14,-4 -21,-4 -9,0 -18,2 -25,7 -8,5 -14,11 -18,18 -4,8 -6,16 -6,25 0,9 2,17 6,25 4,8 10,14 18,18 8,4 16,7 25,7 6,0 11,-1 16,-3 5,-2 9,-4 13,-7 4,-3 7,-8 9,-13 2,-5 4,-11 4,-18l-45 0 0 -17 63 0 0 11c0,12 -2,23 -7,32 -5,9 -12,17 -21,22 -9,5 -19,8 -31,8 -9,0 -18,-2 -26,-5 -8,-3 -15,-8 -21,-14 -6,-6 -11,-13 -14,-21z"/>
  <polygon class="fil6" points="4370,1854 4370,1726 4393,1726 4465,1825 4465,1726 4483,1726 4483,1854 4465,1854 4388,1749 4388,1854 "/>
  <polygon class="fil6" points="4524,1726 4542,1726 4542,1854 4524,1854 "/>
  <polygon class="fil6" points="4575,1854 4575,1838 4652,1742 4577,1742 4577,1726 4675,1726 4675,1742 4598,1838 4675,1838 4675,1854 "/>
  <polygon class="fil6" points="4709,1854 4709,1726 4783,1726 4783,1742 4726,1742 4726,1779 4774,1779 4774,1796 4726,1796 4726,1838 4783,1838 4783,1854 "/>
  <path class="fil6" d="M4837 1838l16 0c7,0 14,-1 20,-3 6,-2 12,-5 16,-8 5,-4 8,-9 11,-15 3,-6 4,-13 4,-21 0,-8 -1,-16 -4,-22 -3,-6 -7,-11 -12,-15 -5,-4 -11,-6 -17,-8 -6,-2 -13,-3 -21,-3l-14 0 0 95zm-18 17l0 -128 35 0c10,0 19,1 27,4 8,3 16,7 22,13 6,5 11,12 14,20 3,8 5,17 5,27 0,10 -2,19 -5,27 -3,8 -8,15 -14,20 -6,5 -13,10 -22,13 -8,3 -18,4 -27,4l-35 0z"/>
  <path class="fil6" d="M3686 1990c0,-9 2,-18 5,-26 3,-8 8,-15 14,-21 6,-6 13,-11 21,-14 8,-3 17,-5 26,-5 9,0 18,2 26,5 8,3 15,8 22,15l-13 11c-5,-5 -10,-9 -16,-11 -6,-3 -12,-4 -19,-4 -7,0 -13,1 -19,4 -6,3 -11,6 -16,11 -4,5 -8,10 -10,16 -3,6 -4,12 -4,19 0,7 1,13 4,19 3,6 6,12 11,16 4,4 10,8 16,11 6,3 12,4 19,4 7,0 13,-1 19,-4 6,-3 11,-6 16,-11l12 12c-13,13 -28,19 -46,19 -12,0 -23,-3 -33,-9 -10,-6 -18,-14 -24,-24 -6,-10 -9,-21 -9,-34z"/>
  <polygon class="fil6" points="3814,2055 3814,1926 3889,1926 3889,1943 3832,1943 3832,1979 3879,1979 3879,1996 3832,1996 3832,2038 3889,2038 3889,2055 "/>
  <path class="fil6" d="M3926 1982l29 0c4,0 7,0 10,-1 3,-1 5,-2 8,-3 2,-1 4,-3 5,-6 1,-3 2,-6 2,-9 0,-7 -2,-12 -6,-15 -4,-3 -10,-5 -19,-5l-29 0 0 39zm-18 73l0 -128 47 0c13,0 24,3 31,9 8,6 11,15 11,27 0,10 -3,18 -8,24 -5,6 -13,10 -23,11l33 57 -20 0 -32 -56 -22 0 0 56 -18 0z"/>
  <polygon class="fil6" points="4004,1943 4004,1926 4103,1926 4103,1943 4062,1943 4062,2055 4045,2055 4045,1943 "/>
  <polygon class="fil6" points="4117,1926 4134,1926 4134,2055 4117,2055 "/>
  <polygon class="fil6" points="4159,2055 4159,1926 4234,1926 4234,1943 4177,1943 4177,1979 4224,1979 4224,1996 4177,1996 4177,2055 "/>
  <polygon class="fil6" points="4250,1926 4268,1926 4268,2055 4250,2055 "/>
  <path class="fil6" d="M4283 1990c0,-9 2,-18 5,-26 3,-8 8,-15 14,-21 6,-6 13,-11 21,-14 8,-3 17,-5 26,-5 9,0 18,2 26,5 8,3 15,8 22,15l-13 11c-5,-5 -10,-9 -16,-11 -6,-3 -12,-4 -19,-4 -7,0 -13,1 -19,4 -6,3 -11,6 -16,11 -4,5 -8,10 -10,16 -3,6 -4,12 -4,19 0,7 1,13 4,19 3,6 6,12 11,16 4,4 10,8 16,11 6,3 12,4 19,4 7,0 13,-1 19,-4 6,-3 11,-6 16,-11l12 12c-13,13 -28,19 -46,19 -12,0 -23,-3 -33,-9 -10,-6 -18,-14 -24,-24 -6,-10 -9,-21 -9,-34z"/>
  <path class="fil6" d="M4437 2008l46 0 -23 -60 -23 60zm-37 47l50 -128 19 0 50 128 -19 0 -11 -30 -59 0 -11 30 -19 0z"/>
  <polygon class="fil6" points="4508,1943 4508,1926 4608,1926 4608,1943 4567,1943 4567,2055 4549,2055 4549,1943 "/>
  <polygon class="fil6" points="4621,1926 4639,1926 4639,2055 4621,2055 "/>
  <path class="fil6" d="M4672 1991c0,9 2,18 7,25 4,8 10,14 18,18 8,4 16,7 25,7 9,0 17,-2 25,-7 8,-4 13,-10 18,-18 4,-8 6,-16 6,-25 0,-9 -2,-17 -6,-25 -4,-8 -10,-14 -18,-18 -8,-5 -16,-7 -25,-7 -9,0 -18,2 -25,7 -8,5 -13,11 -18,18 -4,8 -6,16 -6,25zm-18 0c0,-9 2,-18 5,-26 3,-8 8,-15 14,-21 6,-6 13,-11 21,-14 8,-4 17,-5 26,-5 9,0 18,2 26,5 8,3 15,8 21,14 6,6 11,13 14,21 3,8 5,17 5,26 0,9 -2,18 -5,26 -3,8 -8,15 -14,21 -6,6 -13,11 -21,14 -8,3 -17,5 -26,5 -9,0 -18,-2 -26,-5 -8,-3 -15,-8 -21,-14 -6,-6 -11,-13 -14,-21 -4,-8 -5,-17 -5,-26z"/>
  <polygon class="fil6" points="4804,2055 4804,1926 4827,1926 4900,2025 4900,1926 4917,1926 4917,2055 4899,2055 4822,1949 4822,2055 "/>
 </g>
</svg>
