<?xml version="1.0" encoding="UTF-8"?>
<!DOCTYPE svg PUBLIC "-//W3C//DTD SVG 1.1//EN" "http://www.w3.org/Graphics/SVG/1.1/DTD/svg11.dtd">
<!-- Creator: CorelDRAW X5 -->
<svg xmlns="http://www.w3.org/2000/svg" xml:space="preserve" width="166.129mm" height="32.1349mm" style="shape-rendering:geometricPrecision; text-rendering:geometricPrecision; image-rendering:optimizeQuality; fill-rule:evenodd; clip-rule:evenodd"
viewBox="0 0 3601 697"
 xmlns:xlink="http://www.w3.org/1999/xlink">
 <defs>
  <style type="text/css">
   <![CDATA[
    .fil1 {fill:#FEFEFE;fill-rule:nonzero}
    .fil0 {fill:red;fill-rule:nonzero}
   ]]>
  </style>
 </defs>
 <g id="Capa_x0020_1">
  <metadata id="CorelCorpID_0Corel-Layer"/>
  <path class="fil0" d="M0 0l581 0 0 119c-125,145 -301,361 -330,559l-136 0c18,-187 204,-441 326,-562l-441 0 0 -116z"/>
  <polygon class="fil0" points="711,0 840,0 840,116 711,116 "/>
  <polygon class="fil1" points="711,183 840,183 840,678 711,678 "/>
  <path class="fil1" d="M1104 573l197 0c101,0 208,-33 208,-228 0,-217 -137,-230 -216,-230l-190 0 0 458zm-140 -562l359 0c261,0 326,149 326,340 0,144 -65,327 -292,327l-393 0 0 -667z"/>
  <path class="fil1" d="M2195 381c-16,-99 -104,-129 -167,-129 -60,0 -144,28 -165,129l332 0zm-332 82c3,55 40,140 168,140 85,0 122,-30 148,-71l140 0c-28,55 -95,164 -284,164 -223,0 -306,-130 -306,-261 0,-165 122,-271 298,-271 219,0 303,135 303,280l0 19 -467 0z"/>
  <path class="fil1" d="M2820 431c-37,16 -77,21 -169,31 -97,11 -120,33 -120,75 0,65 60,77 104,77 69,0 186,-26 186,-135l0 -48zm129 134c0,27 20,28 28,28 12,0 32,-1 42,-3l0 91c-25,5 -48,11 -91,11 -84,0 -93,-45 -97,-63 -25,24 -88,68 -232,68 -129,0 -202,-58 -202,-155 0,-136 140,-148 222,-156 185,-18 204,-24 204,-63 0,-57 -65,-71 -140,-71 -85,0 -131,27 -135,82l-126 0c19,-130 115,-170 261,-170 259,0 266,102 266,166l0 234z"/>
  <path class="fil1" d="M3190 523c4,75 90,86 136,86 64,0 134,-17 134,-63 0,-38 -21,-51 -161,-70 -153,-21 -233,-38 -233,-151 0,-141 164,-160 247,-160 77,0 261,11 268,170l-134 0c-10,-74 -96,-82 -140,-82 -73,0 -112,31 -112,57 0,40 12,47 136,64 162,23 269,39 269,154 0,126 -120,169 -274,169 -106,0 -273,-22 -277,-174l140 0z"/>
 </g>
</svg>
